<?xml version="1.0" standalone="no"?>
<!DOCTYPE svg PUBLIC "-//W3C//DTD SVG 20010904//EN"
 "http://www.w3.org/TR/2001/REC-SVG-20010904/DTD/svg10.dtd">
<svg version="1.0" xmlns="http://www.w3.org/2000/svg"
 width="421.000000pt" height="421.000000pt" viewBox="0 0 421.000000 421.000000"
 preserveAspectRatio="xMidYMid meet">
<metadata>
Created by potrace 1.11, written by Peter Selinger 2001-2013
</metadata>
<g transform="translate(0.000000,421.000000) scale(0.100000,-0.100000)"
fill="#000000" stroke="none">
<path d="M2015 3749 c-84 -10 -267 -52 -327 -76 -64 -24 -143 -79 -174 -120
-15 -20 -38 -62 -50 -92 l-23 -56 -49 3 c-58 4 -93 -11 -138 -60 -41 -42 -90
-141 -111 -221 -21 -83 -22 -259 -1 -362 9 -44 19 -152 22 -240 7 -174 24
-265 55 -299 18 -19 19 -29 12 -98 -4 -43 -10 -80 -13 -83 -3 -3 -13 15 -22
41 -18 54 -61 114 -81 114 -30 0 -25 -23 14 -58 49 -45 55 -62 75 -193 25
-177 27 -217 8 -229 -14 -8 -12 -9 11 -10 21 0 27 -5 27 -21 0 -37 60 -202
101 -279 74 -136 188 -258 374 -400 143 -109 251 -150 393 -150 106 0 154 12
272 67 201 94 400 248 490 382 37 55 104 187 124 244 5 15 12 17 35 12 22 -5
35 0 57 20 l29 26 -31 -21 c-43 -30 -68 -18 -60 29 8 51 83 296 97 319 7 10
32 30 56 43 31 17 43 29 41 43 -2 11 -9 21 -16 24 -12 4 -79 -60 -114 -109
-17 -24 -17 -23 -18 38 0 34 4 64 9 67 5 4 30 54 54 114 37 86 49 130 62 227
11 81 28 148 50 205 49 127 56 162 54 271 l-2 101 30 20 c65 47 113 144 112
227 0 39 -2 43 -12 27 -43 -67 -55 -80 -81 -89 -67 -22 -125 19 -232 163 -69
94 -192 218 -267 269 -73 50 -202 107 -294 130 -83 21 -350 52 -433 50 -25 -1
-76 -5 -115 -10z m-130 -744 c61 -8 164 -22 230 -31 81 -11 198 -17 360 -18
l240 -1 90 -55 c169 -102 189 -125 210 -252 27 -163 28 -227 5 -292 -31 -90
-35 -153 -15 -211 24 -70 22 -182 -5 -241 -11 -26 -17 -51 -13 -57 3 -5 2 -8
-3 -5 -5 3 -22 -13 -37 -36 l-28 -41 31 35 30 34 0 -44 c0 -57 -22 -159 -50
-233 -27 -71 -200 -315 -281 -397 -67 -67 -222 -174 -314 -217 -58 -27 -64
-28 -215 -26 -172 2 -203 9 -295 68 -72 46 -220 188 -276 265 -82 113 -205
325 -228 395 -34 105 -41 217 -25 412 7 92 14 218 14 278 0 91 5 128 29 210
16 55 35 126 42 159 7 32 29 90 48 129 43 84 101 134 195 166 74 24 117 25
261 6z"/>
<path d="M1618 2610 c-97 -40 -174 -108 -149 -133 7 -7 32 0 83 23 59 27 89
34 159 38 79 4 89 2 153 -28 65 -30 69 -30 87 -14 26 23 24 60 -4 79 -83 54
-240 71 -329 35z"/>
<path d="M2511 2565 c-82 -30 -99 -56 -67 -100 13 -18 15 -18 72 6 46 19 77
24 139 24 87 -1 134 -18 205 -76 33 -28 70 -38 70 -20 0 22 -71 108 -114 138
-87 60 -193 70 -305 28z"/>
<path d="M2643 2353 c15 -2 39 -2 55 0 15 2 2 4 -28 4 -30 0 -43 -2 -27 -4z"/>
<path d="M2565 2340 c-3 -6 1 -7 9 -4 18 7 21 14 7 14 -6 0 -13 -4 -16 -10z"/>
<path d="M2748 2343 c7 -3 16 -2 19 1 4 3 -2 6 -13 5 -11 0 -14 -3 -6 -6z"/>
<path d="M2790 2330 c8 -5 20 -10 25 -10 6 0 3 5 -5 10 -8 5 -19 10 -25 10 -5
0 -3 -5 5 -10z"/>
<path d="M1585 2295 c-57 -30 -89 -65 -106 -113 -17 -52 -5 -47 34 12 83 125
249 143 368 38 32 -28 54 -67 73 -126 12 -37 17 -7 6 31 -34 111 -122 175
-250 181 -66 3 -81 0 -125 -23z"/>
<path d="M2895 2260 c21 -22 41 -40 44 -40 3 0 -13 18 -34 40 -21 22 -41 40
-44 40 -3 0 13 -18 34 -40z"/>
<path d="M1660 2252 c-37 -18 -80 -87 -80 -128 0 -59 14 -70 92 -79 96 -10
120 -10 140 -1 11 5 17 2 20 -11 6 -30 40 30 45 80 12 113 -111 192 -217 139z
m48 -58 c4 -25 -22 -49 -43 -40 -22 8 -29 34 -14 52 17 21 53 14 57 -12z"/>
<path d="M2520 2245 c-81 -25 -160 -113 -160 -177 0 -15 8 -6 26 31 46 91 137
138 254 129 84 -6 134 -43 180 -134 34 -67 35 -68 38 -36 7 70 -81 165 -178
192 -48 13 -106 11 -160 -5z"/>
<path d="M2527 2190 c-68 -37 -93 -110 -66 -189 l11 -31 88 0 c73 0 92 3 114
21 24 19 27 19 33 3 11 -30 33 13 33 66 0 111 -117 182 -213 130z m38 -70 c0
-18 -6 -26 -23 -28 -24 -4 -38 18 -28 44 3 9 15 14 28 12 17 -2 23 -10 23 -28z"/>
<path d="M2950 2191 c0 -6 4 -13 10 -16 6 -3 7 1 4 9 -7 18 -14 21 -14 7z"/>
<path d="M2302 2000 c0 -19 2 -27 5 -17 2 9 2 25 0 35 -3 9 -5 1 -5 -18z"/>
<path d="M2311 1934 c0 -11 3 -14 6 -6 3 7 2 16 -1 19 -3 4 -6 -2 -5 -13z"/>
<path d="M2330 1884 c0 -11 38 -74 45 -74 2 0 -5 17 -17 38 -27 46 -28 48 -28
36z"/>
<path d="M2380 1797 c0 -2 15 -16 33 -33 l32 -29 -29 33 c-28 30 -36 37 -36
29z"/>
<path d="M1977 1708 c-20 -78 54 -132 180 -132 58 0 78 4 100 20 33 25 49 71
38 111 l-7 28 -12 -32 c-20 -57 -48 -77 -118 -81 -77 -4 -125 18 -150 66 -22
45 -25 47 -31 20z"/>
<path d="M2494 1706 c11 -9 24 -16 30 -16 12 0 7 5 -24 19 -24 11 -24 11 -6
-3z"/>
<path d="M2805 1699 c-22 -10 -34 -19 -27 -19 15 0 72 28 72 35 0 6 3 7 -45
-16z"/>
<path d="M2578 1673 c6 -2 18 -2 25 0 6 3 1 5 -13 5 -14 0 -19 -2 -12 -5z"/>
<path d="M2738 1673 c7 -3 16 -2 19 1 4 3 -2 6 -13 5 -11 0 -14 -3 -6 -6z"/>
<path d="M2648 1663 c12 -2 32 -2 45 0 12 2 2 4 -23 4 -25 0 -35 -2 -22 -4z"/>
<path d="M1742 1471 c-14 -38 118 -207 202 -256 49 -28 71 -33 192 -42 88 -6
95 -5 158 25 97 45 237 188 223 226 -6 16 -423 55 -626 59 -113 1 -145 -1
-149 -12z m383 -42 c99 -6 183 -13 188 -16 38 -23 -59 -34 -200 -22 -137 11
-223 28 -223 45 0 9 9 12 28 9 15 -2 108 -9 207 -16z m-40 -229 l20 -9 -20 0
c-11 0 -27 4 -35 9 -13 9 -13 10 0 9 8 0 24 -4 35 -9z"/>
<path d="M1870 1160 c0 -16 89 -71 148 -92 115 -41 278 -9 353 68 33 34 34 42
1 25 -9 -5 -40 -20 -68 -35 -58 -29 -153 -56 -201 -56 -20 0 -71 20 -129 50
-105 55 -104 54 -104 40z"/>
<path d="M1157 1719 c7 -7 15 -10 18 -7 3 3 -2 9 -12 12 -14 6 -15 5 -6 -5z"/>
</g>
</svg>
