<?xml version="1.0" standalone="no"?>
<!DOCTYPE svg PUBLIC "-//W3C//DTD SVG 20010904//EN"
 "http://www.w3.org/TR/2001/REC-SVG-20010904/DTD/svg10.dtd">
<svg version="1.0" xmlns="http://www.w3.org/2000/svg"
 width="1000.000000pt" height="1000.000000pt" viewBox="0 0 1000.000000 1000.000000"
 preserveAspectRatio="xMidYMid meet">
<metadata>
Created by potrace 1.14, written by Peter Selinger 2001-2017
</metadata>
<g transform="translate(0.000000,1000.000000) scale(0.100000,-0.100000)"
fill="#000000" stroke="none">
<path d="M6138 9189 c20 -29 76 -111 124 -183 48 -72 91 -136 95 -142 9 -11 7
-7 116 -194 389 -659 650 -1434 722 -2135 3 -33 8 -78 10 -100 15 -131 21
-567 10 -655 -2 -19 -6 -71 -9 -116 -3 -44 -8 -96 -10 -115 -3 -19 -13 -86
-22 -149 -35 -247 -101 -516 -160 -647 -8 -17 -14 -35 -14 -40 0 -4 -4 -14 -9
-22 -7 -10 -57 18 -217 125 -115 75 -210 141 -212 146 -2 4 -7 8 -12 8 -8 0
-160 99 -170 110 -3 4 -57 42 -120 85 -412 282 -930 669 -1430 1069 -195 156
-575 469 -590 486 -3 3 -50 43 -105 90 -55 46 -102 87 -105 90 -3 3 -34 30
-70 60 -36 30 -67 57 -70 60 -3 3 -66 59 -140 125 -74 66 -144 129 -156 140
-11 11 -59 54 -105 95 -46 41 -110 100 -142 130 -350 325 -439 410 -761 729
-137 135 -245 239 -241 231 88 -160 774 -1104 1149 -1580 123 -157 361 -455
366 -460 3 -3 44 -52 90 -110 46 -58 87 -107 90 -110 3 -3 39 -45 80 -95 87
-104 87 -105 216 -255 55 -63 113 -131 130 -150 128 -144 290 -327 299 -336
73 -80 211 -227 239 -257 20 -21 36 -40 36 -43 0 -18 -609 387 -1030 684 -399
282 -1050 768 -1425 1064 -82 66 -166 131 -185 146 -76 60 -401 324 -455 371
-11 9 -63 52 -115 96 -52 44 -131 111 -175 149 -44 38 -109 94 -145 125 -63
55 -250 221 -260 231 -25 25 -61 52 -55 40 37 -65 334 -486 427 -605 5 -5 54
-71 111 -145 140 -185 589 -749 717 -900 21 -25 84 -101 141 -170 57 -69 108
-130 114 -136 5 -6 30 -35 55 -64 66 -78 233 -274 240 -280 3 -3 70 -79 150
-170 79 -91 147 -167 150 -170 5 -5 45 -48 235 -255 288 -312 730 -755 1071
-1071 24 -23 139 -127 208 -189 6 -6 45 -39 86 -75 41 -36 77 -67 80 -70 5 -5
114 -99 160 -138 14 -11 35 -30 48 -40 13 -11 41 -35 64 -54 23 -18 83 -67
134 -108 50 -41 137 -110 193 -153 56 -43 101 -80 101 -81 0 -14 -307 -173
-452 -235 -81 -35 -287 -112 -338 -126 -442 -128 -774 -176 -1220 -179 -690
-4 -1465 167 -2189 485 -338 149 -444 203 -685 352 -67 41 -291 195 -400 274
-70 52 -130 92 -132 90 -3 -3 181 -283 196 -297 3 -3 38 -50 79 -105 75 -101
210 -270 267 -335 366 -416 719 -747 1089 -1021 33 -24 62 -46 65 -49 3 -3 19
-14 35 -26 477 -332 869 -546 1380 -752 183 -73 512 -188 600 -208 6 -1 44
-12 86 -23 148 -41 415 -99 539 -115 25 -4 56 -9 70 -11 39 -7 80 -13 150 -21
36 -4 74 -8 85 -10 81 -9 300 -19 455 -19 310 0 548 22 815 75 55 11 109 22
120 24 42 8 184 46 265 71 47 15 92 28 100 30 31 7 236 86 328 127 158 68 366
175 462 236 82 53 395 172 516 196 11 3 40 9 67 15 26 6 64 14 85 17 20 3 48
8 62 11 14 2 99 7 190 9 128 3 188 -1 270 -15 388 -67 699 -293 922 -668 29
-49 60 -102 68 -118 23 -44 45 -43 69 3 36 71 48 164 49 382 0 113 -4 232 -8
265 -5 33 -12 83 -15 110 -4 28 -11 70 -16 95 -5 25 -11 54 -13 65 -13 72 -19
96 -32 150 -91 362 -263 750 -483 1085 -64 98 -201 283 -213 288 -13 6 -9 33
22 137 35 115 32 100 64 270 27 145 36 208 51 354 21 209 21 599 0 776 -2 22
-9 81 -15 130 -15 126 -23 180 -57 365 -97 532 -359 1200 -685 1744 -101 168
-365 559 -397 586 -3 3 -35 43 -71 90 -35 47 -67 87 -71 90 -4 3 -32 36 -63
74 -165 202 -498 540 -710 721 -33 28 -78 66 -100 86 -23 19 -63 53 -91 75
-27 21 -52 41 -55 44 -30 32 -520 380 -535 380 -3 0 -11 4 -18 10 -26 22 -120
80 -128 80 -5 0 8 -23 29 -51z"/>
</g>
</svg>
